<svg version="1.1" id="Layer_1" xmlns="http://www.w3.org/2000/svg" xmlns:xlink="http://www.w3.org/1999/xlink" x="0px" y="0px"
	 width="100%" viewBox="0 0 512 512" enable-background="new 0 0 512 512" xml:space="preserve">
<path fill="#000000" opacity="1.000000" stroke="none" 
	d="
M285.000000,513.000000 
	C190.023056,513.000000 95.546112,513.000000 1.034582,513.000000 
	C1.034582,342.398041 1.034582,171.796051 1.034582,1.097036 
	C171.560287,1.097036 342.120667,1.097036 512.840515,1.097036 
	C512.840515,171.666550 512.840515,342.333252 512.840515,513.000000 
	C437.129364,513.000000 361.314667,513.000000 285.000000,513.000000 
M58.162437,405.691528 
	C69.112358,422.135834 83.061440,435.954102 98.136131,448.360840 
	C115.810913,462.907501 135.218567,474.907379 156.344315,484.275818 
	C182.350891,495.808746 209.422668,502.920044 237.595459,504.755127 
	C262.107788,506.351776 286.730774,505.374268 310.906311,499.949066 
	C341.422546,493.100952 369.721283,480.826904 395.717102,463.611359 
	C415.401031,450.575714 432.491699,434.386993 447.941071,416.540558 
	C450.968689,413.043213 453.334076,408.972565 456.649872,404.878204 
	C463.426941,394.308868 470.807465,384.070892 476.835968,373.090546 
	C485.332886,357.614197 492.348755,341.299164 496.304749,324.058960 
	C499.953125,308.159332 503.616211,292.017700 504.606018,275.819702 
	C505.678741,258.265076 504.569458,240.426468 502.711212,222.891937 
	C501.276642,209.355499 497.825012,195.928375 494.170563,182.757782 
	C489.482910,165.863663 482.074219,150.024994 473.410522,134.719925 
	C464.188385,118.428230 453.504944,103.203697 440.803497,89.561699 
	C432.285767,80.413239 422.869629,72.022484 413.304230,63.945496 
	C396.328888,49.611629 377.331848,38.511913 357.025848,29.397589 
	C331.394806,17.893143 304.542145,10.973878 276.733307,9.344568 
	C257.672272,8.227791 238.300613,9.249881 219.291382,11.344598 
	C201.931412,13.257578 185.044861,18.335371 168.561432,24.637602 
	C150.720108,31.459011 133.791199,40.025383 118.083282,50.645668 
	C100.015221,62.861683 83.739601,77.289268 69.385109,93.929100 
	C56.512024,108.851685 45.454723,124.920227 36.402210,142.312775 
	C28.622051,157.260757 21.573101,172.654236 18.040245,189.258408 
	C14.679957,205.051468 10.432346,220.887482 9.413983,236.885345 
	C8.275459,254.770905 9.411702,272.956726 11.295145,290.828796 
	C12.738188,304.521881 16.350489,318.073059 19.945604,331.432312 
	C25.321363,351.408417 34.656509,369.769653 45.247063,387.438660 
	C48.947727,393.612732 53.646431,399.188599 58.162437,405.691528 
z"/>
<path fill="#E6ECFF" opacity="1.000000" stroke="none" 
	d="
M57.889347,405.037659 
	C53.646431,399.188599 48.947727,393.612732 45.247063,387.438660 
	C34.656509,369.769653 25.321363,351.408417 19.945604,331.432312 
	C16.350489,318.073059 12.738188,304.521881 11.295145,290.828796 
	C9.411702,272.956726 8.275459,254.770905 9.413983,236.885345 
	C10.432346,220.887482 14.679957,205.051468 18.040245,189.258408 
	C21.573101,172.654236 28.622051,157.260757 36.402210,142.312775 
	C45.454723,124.920227 56.512024,108.851685 69.385109,93.929100 
	C83.739601,77.289268 100.015221,62.861683 118.083282,50.645668 
	C133.791199,40.025383 150.720108,31.459011 168.561432,24.637602 
	C185.044861,18.335371 201.931412,13.257578 219.291382,11.344598 
	C238.300613,9.249881 257.672272,8.227791 276.733307,9.344568 
	C304.542145,10.973878 331.394806,17.893143 357.025848,29.397589 
	C377.331848,38.511913 396.328888,49.611629 413.304230,63.945496 
	C422.869629,72.022484 432.285767,80.413239 440.803497,89.561699 
	C453.504944,103.203697 464.188385,118.428230 473.410522,134.719925 
	C482.074219,150.024994 489.482910,165.863663 494.170563,182.757782 
	C497.825012,195.928375 501.276642,209.355499 502.711212,222.891937 
	C504.569458,240.426468 505.678741,258.265076 504.606018,275.819702 
	C503.616211,292.017700 499.953125,308.159332 496.304749,324.058960 
	C492.348755,341.299164 485.332886,357.614197 476.835968,373.090546 
	C470.807465,384.070892 463.426941,394.308868 456.205383,404.699524 
	C444.481506,389.355865 431.603271,375.672913 417.107452,363.571320 
	C373.033600,326.777130 322.201324,307.180664 264.880463,305.162292 
	C218.420914,303.526367 174.789749,314.448029 134.323837,337.391510 
	C104.106293,354.524384 78.409416,376.886871 57.889347,405.037659 
M161.006683,175.547974 
	C161.290558,180.026978 161.343277,184.534592 161.893570,188.980621 
	C168.417114,241.685577 216.095413,278.671417 268.994568,272.134003 
	C321.648743,265.626862 358.623962,217.974655 352.125000,164.998810 
	C345.669769,112.379547 297.886780,75.304283 244.978607,81.862953 
	C197.933395,87.694817 161.941818,127.442627 161.006683,175.547974 
z"/>
<path fill="#4294FF" opacity="1.000000" stroke="none" 
	d="
M58.025894,405.364594 
	C78.409416,376.886871 104.106293,354.524384 134.323837,337.391510 
	C174.789749,314.448029 218.420914,303.526367 264.880463,305.162292 
	C322.201324,307.180664 373.033600,326.777130 417.107452,363.571320 
	C431.603271,375.672913 444.481506,389.355865 455.882874,404.843567 
	C453.334076,408.972565 450.968689,413.043213 447.941071,416.540558 
	C432.491699,434.386993 415.401031,450.575714 395.717102,463.611359 
	C369.721283,480.826904 341.422546,493.100952 310.906311,499.949066 
	C286.730774,505.374268 262.107788,506.351776 237.595459,504.755127 
	C209.422668,502.920044 182.350891,495.808746 156.344315,484.275818 
	C135.218567,474.907379 115.810913,462.907501 98.136131,448.360840 
	C83.061440,435.954102 69.112358,422.135834 58.025894,405.364594 
z"/>
<path fill="#4294FF" opacity="1.000000" stroke="none" 
	d="
M161.014038,175.065125 
	C161.941818,127.442627 197.933395,87.694817 244.978607,81.862953 
	C297.886780,75.304283 345.669769,112.379547 352.125000,164.998810 
	C358.623962,217.974655 321.648743,265.626862 268.994568,272.134003 
	C216.095413,278.671417 168.417114,241.685577 161.893570,188.980621 
	C161.343277,184.534592 161.290558,180.026978 161.014038,175.065125 
z"/>
</svg>